<svg xmlns="http://www.w3.org/2000/svg" version="1.1" viewBox="-5.0 -10.0 110.0 135.0">
 <path d="m73.125 54.828c7.1328 0 12.918 5.7852 12.918 12.918 0 6.2578-4.4531 11.48-10.363 12.664l0.089843-5.8984c2.7031-1.0586 4.6172-3.6875 4.6172-6.7656s-1.9141-5.707-4.6172-6.7656v5.5117c0 1.4531-1.1914 2.6445-2.6445 2.6445s-2.6445-1.1914-2.6445-2.6445v-5.5117c-2.7031 1.0586-4.6172 3.6875-4.6172 6.7656s1.9141 5.707 4.6172 6.7656l0.089843 5.8984c-5.9102-1.1875-10.363-6.4062-10.363-12.664 0-7.1367 5.7812-12.918 12.918-12.918zm-5.5078-35.758v11.457c0 5.2266-2.3086 9.7266-6.5508 12.777l-11.062 7.9531-11.066-7.9531c-4.2422-3.0508-6.5508-7.5508-6.5508-12.777l-0.003907-11.457c0-0.58203 0.37891-1.0781 0.94141-1.2344 3.1094-0.85156 5.5547-3.2969 6.4062-6.4062 0.15234-0.5625 0.64844-0.94141 1.2344-0.94141h18.074c0.58203 0 1.0781 0.37891 1.2344 0.94141 0.85156 3.1094 3.2969 5.5547 6.4062 6.4062 0.55859 0.15625 0.9375 0.65234 0.9375 1.2344zm-25.262 11.82 4.4141 4.9141c0.85938 0.95703 2.375 0.89062 3.1562-0.11719l7.7578-9.0508c0.73828-0.86328 0.63672-2.1602-0.22656-2.8984s-2.1602-0.63672-2.8984 0.22656l-6.2969 7.3477-2.8516-3.1758c-0.76172-0.84375-2.0586-0.91406-2.9062-0.15234-0.83984 0.76172-0.91016 2.0625-0.14844 2.9062zm21.164-9.8594c-2.8359-1.3164-5.125-3.6055-6.4414-6.4414h-14.152c-1.3164 2.8359-3.6055 5.125-6.4414 6.4414v9.4961c0 3.9062 1.6719 7.168 4.8477 9.4492l8.6719 6.2344 8.6719-6.2344c3.1719-2.2812 4.8477-5.543 4.8477-9.4492zm-36.961 27.496c-7.6328 0-14.355 4.543-17.344 11.293l1.6445 3.4453c0.33203 0.69922 0.035156 1.5352-0.66406 1.8711-0.69922 0.33203-1.5352 0.035156-1.8711-0.66406l-0.35156-0.73438c-2.3477 11.715 6.5938 22.699 18.582 22.699 1.582 0 3.0508-0.24609 4.4219-0.69141l1.0469-3.5547c0.21875-0.74219 0.99609-1.168 1.7383-0.94922 0.74219 0.21875 1.168 0.99609 0.94922 1.7383l-0.34766 1.1758c5.7695-3.5898 9.7734-10.82 13.766-16.633l-3.8047-5.7266-3.7852-0.51172c-0.76562-0.10156-1.3047-0.80859-1.1992-1.5742 0.10156-0.76563 0.80859-1.3047 1.5742-1.1992l1.2461 0.16797c-4.0039-5.5-8.7148-10.152-15.602-10.152zm17.789 7.3672-0.11719 0.85547c-4.3789-5.9688-9.6211-11.031-17.672-11.031-6.0078 0-11.449 2.4375-15.387 6.375-1.9219 1.9219-3.4844 4.1992-4.582 6.7266l-3.5273 1.6836c-0.69922 0.33203-0.99609 1.1719-0.66406 1.8711 0.33203 0.69922 1.1719 0.99609 1.8711 0.66406l1.0977-0.52344c-3.1797 13.617 7.1406 26.73 21.191 26.73 2.0469 0 3.9102-0.32812 5.6289-0.91406l3.8008 1.1172c0.74219 0.21875 1.5195-0.20703 1.7383-0.94922s-0.20703-1.5195-0.94922-1.7383l-0.82422-0.24219c5.8945-3.7148 9.8359-10.523 13.824-16.434 3.9219 5.7969 7.7383 12.484 13.398 16.328l-0.82031 0.20703c-0.75 0.1875-1.207 0.94922-1.0195 1.6992s0.94922 1.207 1.6992 1.0195l3.8438-0.96875c1.8828 0.72656 3.9492 1.1406 6.2461 1.1406 10.742 0 19.785-7.8203 21.48-18.242l0.66016 0.78906c0.49609 0.59375 1.3789 0.67188 1.9727 0.17578s0.67188-1.3789 0.17578-1.9727l-2.5352-3.0234c-0.13281-5.8047-2.543-11.047-6.3672-14.875-3.9375-3.9375-9.3789-6.375-15.387-6.375-1.918 0-3.6719 0.28906-5.3008 0.80469l0.28516-0.61328c0.32422-0.70313 0.015625-1.5352-0.6875-1.8594-0.70312-0.32422-1.5352-0.015624-1.8594 0.6875l-1.6758 3.6094c-5.1797 3.1992-8.8945 8.832-12.406 14.156-0.52344 0.79297-1.043 1.582-1.5781 2.375l-3.3086-4.9922 0.52344-3.8828c0.10156-0.76563-0.43359-1.4727-1.1992-1.5742-0.76562-0.10938-1.4688 0.42969-1.5703 1.1953zm20.211 27.023c-0.1875-0.75 0.26953-1.5117 1.0195-1.6992s1.5117 0.26953 1.6992 1.0195l0.90625 3.5898c1.5195 0.55859 3.1562 0.87109 4.9414 0.87109 9.293 0 17.129-6.7227 18.676-15.715l-0.82812 0.69531c-0.59375 0.49609-1.4766 0.41797-1.9727-0.17578s-0.41797-1.4766 0.17578-1.9727l2.8945-2.4258c-0.33984-10.188-8.707-18.309-18.941-18.309-1.7422 0-3.3438 0.29688-4.832 0.83203l1.293 0.60156c0.70312 0.32422 1.0117 1.1562 0.6875 1.8594-0.32422 0.70312-1.1562 1.0117-1.8594 0.6875l-3.332-1.5469c-5.6406 3.6367-9.5898 10.746-13.531 16.484 3.8984 5.6797 7.7891 12.719 13.312 16.41zm-25.082-15.438c0 7.1367-5.7812 12.918-12.918 12.918-7.1367 0-12.918-5.7812-12.918-12.918s5.7812-12.918 12.918-12.918c7.1328 0 12.918 5.7852 12.918 12.918zm-16.77 2.4336c0.59766 0.49219 0.68359 1.3711 0.19141 1.9688-0.49219 0.59766-1.3711 0.68359-1.9688 0.19141l-4.2656-3.5156c-0.69531-0.57031-0.66797-1.6211 0.015626-2.1758l4.25-3.5c0.59766-0.49219 1.4805-0.40625 1.9688 0.19141 0.49219 0.59766 0.40625 1.4805-0.19141 1.9688l-2.957 2.4336zm3.4336-6.2891c0.19922-0.74609 0.96875-1.1914 1.7148-0.99219 0.74609 0.19922 1.1914 0.96875 0.99219 1.7148l-1.875 6.9922c-0.19922 0.74609-0.96875 1.1914-1.7148 0.99219-0.74609-0.19922-1.1914-0.96875-0.99219-1.7148zm6.043 8.4531c-0.59766 0.49219-1.4805 0.40625-1.9688-0.19141-0.49219-0.59766-0.40625-1.4805 0.19141-1.9688l2.957-2.4336-2.957-2.4336c-0.59766-0.49219-0.68359-1.3711-0.19141-1.9688 0.49219-0.59766 1.3711-0.68359 1.9688-0.19141 0.55859 0.46094 4.2578 3.4609 4.4609 3.707 0.49219 0.59766 0.40625 1.4805-0.19141 1.9688z" fill-rule="evenodd"/>
<text x="0.0" y="117.5" font-size="5.0" font-weight="bold" font-family="Arbeit Regular, Helvetica, Arial-Unicode, Arial, Sans-serif" fill="#000000">Created by SITI NURHAYATI</text><text x="0.0" y="122.5" font-size="5.0" font-weight="bold" font-family="Arbeit Regular, Helvetica, Arial-Unicode, Arial, Sans-serif" fill="#000000">from Noun Project</text></svg>